<svg width="150" height="107" viewBox="0 0 150 107" fill="none" xmlns="http://www.w3.org/2000/svg">
<path d="M53.5718 107C61.0307 107 68.2407 105.493 75.0124 102.535C81.5751 105.404 88.8149 107 96.4282 107C125.965 107 150 83.0023 150 53.5C150 23.9977 125.965 0 96.4282 0C90.5178 0 85.7129 4.79854 85.7129 10.701V53.5C85.7129 62.6943 81.829 71.3118 75.0025 77.4082C68.4299 71.5256 64.2822 62.9877 64.2822 53.5V10.701C64.2822 4.80351 59.4772 0 53.5668 0C24.0299 0 0 23.9977 0 53.5C0 83.0023 24.0299 107 53.5718 107ZM90 53.5V10.701C90 7.16052 92.883 4.28139 96.4282 4.28139C123.605 4.28139 145.713 26.3596 145.713 53.5C145.713 80.6404 123.605 102.719 96.4282 102.719C69.2514 102.719 47.1436 80.6404 47.1436 53.5V17.5781L44.4647 18.2643C28.3768 22.3965 17.1436 36.8866 17.1436 53.495C17.1436 73.5544 33.4855 89.8744 53.5718 89.8744C54.6921 89.8744 55.8523 89.8148 57.0274 89.7054C58.2523 91.033 59.5419 92.3011 60.8913 93.4994C58.4863 93.937 56.0365 94.1558 53.5718 94.1558C31.1203 94.1558 12.8564 75.9164 12.8564 53.495C12.8564 31.0737 29.9701 14.0127 51.4257 12.8939V53.5C51.4257 78.2784 71.6116 98.4422 96.4282 98.4422C121.245 98.4422 141.431 78.2833 141.431 53.5C141.431 28.7167 121.24 8.55781 96.4282 8.55781C95.2432 8.55781 94.2871 9.51752 94.2871 10.696V53.5C94.2871 64.2955 89.9203 74.7081 82.2772 82.3111C80.9427 81.6548 79.6531 80.9089 78.4282 80.0784C85.8124 73.2063 89.995 63.664 89.995 53.5H90ZM53.5967 85.598H53.5718C35.8506 85.598 21.4307 71.1974 21.4307 53.5C21.4307 39.7856 30.1145 27.7072 42.8614 23.2269V53.5C42.8614 65.5336 46.8598 76.6523 53.6017 85.598H53.5967ZM53.5718 4.28139C57.117 4.28139 60 7.16052 60 10.701V53.5C60 64.9071 65.288 75.1009 73.5386 81.7741C73.6282 81.8586 73.7228 81.9282 73.8174 81.9929C76.2274 83.9024 78.8813 85.5135 81.7295 86.7765C81.7942 86.8113 81.8639 86.8412 81.9286 86.866C86.3751 88.8004 91.2747 89.8794 96.4232 89.8794C116.51 89.8794 132.851 73.5594 132.851 53.5C132.851 36.8916 121.613 22.4015 105.525 18.2643L102.846 17.5781V53.5C102.846 65.1209 98.7436 76.3291 91.2697 85.1903C89.6564 84.9317 88.083 84.5438 86.5593 84.0515C94.2224 75.7821 98.5643 64.8275 98.5643 53.505V12.8939C120.02 14.0127 137.134 31.7947 137.134 53.5C137.134 75.2053 118.87 94.1608 96.4183 94.1608C73.9668 94.1608 55.7029 75.9214 55.7029 53.5V10.701C55.7029 9.51752 54.7419 8.56278 53.5618 8.56278C28.7502 8.56278 8.55934 28.7216 8.55934 53.505C8.55934 78.2883 28.7452 98.4472 53.5618 98.4472C57.4954 98.4472 61.3892 97.935 65.1585 96.9305C66.6722 98.0195 68.2456 99.0339 69.8739 99.9638C64.6556 101.799 59.1884 102.729 53.5618 102.729C26.3851 102.729 4.27718 80.6503 4.27718 53.5099C4.27718 26.3696 26.395 4.28139 53.5718 4.28139ZM96.4282 85.603C103.364 76.3739 107.144 65.1309 107.144 53.505V23.222C119.89 27.7072 128.574 39.7806 128.574 53.5C128.574 71.1974 114.154 85.598 96.4332 85.598L96.4282 85.603Z" fill="black"/>
</svg>
